<mxfile host="app.diagrams.net" modified="2023-08-05T08:37:34.691Z" agent="Mozilla/5.0 (Windows NT 10.0; Win64; x64) AppleWebKit/537.36 (KHTML, like Gecko) Chrome/114.0.0.0 Safari/537.36" etag="MR9kUF39W2QWZmWF1cyx" version="21.6.3" type="github">
  <diagram name="第 1 页" id="qnVdmV9HIySB8onQInbw">
    <mxGraphModel dx="2261" dy="764" grid="1" gridSize="10" guides="1" tooltips="1" connect="1" arrows="1" fold="1" page="1" pageScale="1" pageWidth="827" pageHeight="1169" math="0" shadow="0">
      <root>
        <mxCell id="0" />
        <mxCell id="1" parent="0" />
        <mxCell id="Y89Ig2oS1trRoRL-e6D0-5" value="" style="rounded=0;whiteSpace=wrap;html=1;" vertex="1" parent="1">
          <mxGeometry x="-90" y="277.5" width="160" height="370" as="geometry" />
        </mxCell>
        <mxCell id="Y89Ig2oS1trRoRL-e6D0-4" value="" style="rounded=0;whiteSpace=wrap;html=1;" vertex="1" parent="1">
          <mxGeometry x="270" y="312.5" width="150" height="397.5" as="geometry" />
        </mxCell>
        <mxCell id="Y89Ig2oS1trRoRL-e6D0-6" value="m1" style="rounded=0;whiteSpace=wrap;html=1;" vertex="1" parent="1">
          <mxGeometry x="285" y="362.5" width="120" height="60" as="geometry" />
        </mxCell>
        <mxCell id="Y89Ig2oS1trRoRL-e6D0-7" value="m2" style="rounded=0;whiteSpace=wrap;html=1;" vertex="1" parent="1">
          <mxGeometry x="285" y="442.5" width="120" height="60" as="geometry" />
        </mxCell>
        <mxCell id="Y89Ig2oS1trRoRL-e6D0-8" value="m3" style="rounded=0;whiteSpace=wrap;html=1;" vertex="1" parent="1">
          <mxGeometry x="285" y="532.5" width="120" height="60" as="geometry" />
        </mxCell>
        <mxCell id="Y89Ig2oS1trRoRL-e6D0-9" value="发布应用" style="text;html=1;strokeColor=none;fillColor=none;align=center;verticalAlign=middle;whiteSpace=wrap;rounded=0;" vertex="1" parent="1">
          <mxGeometry x="-40" y="292.5" width="60" height="30" as="geometry" />
        </mxCell>
        <mxCell id="Y89Ig2oS1trRoRL-e6D0-10" value="&amp;nbsp; &amp;nbsp;" style="rounded=0;whiteSpace=wrap;html=1;" vertex="1" parent="1">
          <mxGeometry x="750" y="217.5" width="290" height="200" as="geometry" />
        </mxCell>
        <mxCell id="Y89Ig2oS1trRoRL-e6D0-14" value="监听应用 A" style="text;html=1;strokeColor=none;fillColor=none;align=center;verticalAlign=middle;whiteSpace=wrap;rounded=0;" vertex="1" parent="1">
          <mxGeometry x="920" y="217.5" width="90" height="30" as="geometry" />
        </mxCell>
        <mxCell id="Y89Ig2oS1trRoRL-e6D0-15" value="" style="rounded=0;whiteSpace=wrap;html=1;" vertex="1" parent="1">
          <mxGeometry x="760" y="572.5" width="280" height="200" as="geometry" />
        </mxCell>
        <mxCell id="Y89Ig2oS1trRoRL-e6D0-16" value="实例1&lt;br&gt;192.168.1.1" style="ellipse;whiteSpace=wrap;html=1;aspect=fixed;" vertex="1" parent="1">
          <mxGeometry x="780" y="592.5" width="80" height="80" as="geometry" />
        </mxCell>
        <mxCell id="Y89Ig2oS1trRoRL-e6D0-17" value="实例2&lt;br&gt;192.168.1.2" style="ellipse;whiteSpace=wrap;html=1;aspect=fixed;" vertex="1" parent="1">
          <mxGeometry x="780" y="682.5" width="80" height="80" as="geometry" />
        </mxCell>
        <mxCell id="Y89Ig2oS1trRoRL-e6D0-18" value="监听应用B" style="text;html=1;strokeColor=none;fillColor=none;align=center;verticalAlign=middle;whiteSpace=wrap;rounded=0;" vertex="1" parent="1">
          <mxGeometry x="930" y="592.5" width="60" height="30" as="geometry" />
        </mxCell>
        <mxCell id="Y89Ig2oS1trRoRL-e6D0-20" value="实例1&lt;br style=&quot;border-color: var(--border-color);&quot;&gt;192.168.1.1" style="rounded=1;whiteSpace=wrap;html=1;" vertex="1" parent="1">
          <mxGeometry x="765" y="237.5" width="120" height="60" as="geometry" />
        </mxCell>
        <mxCell id="Y89Ig2oS1trRoRL-e6D0-21" value="实例2&lt;br style=&quot;border-color: var(--border-color);&quot;&gt;192.168.1.2" style="rounded=1;whiteSpace=wrap;html=1;" vertex="1" parent="1">
          <mxGeometry x="765" y="337.5" width="120" height="60" as="geometry" />
        </mxCell>
        <mxCell id="Y89Ig2oS1trRoRL-e6D0-22" value="&lt;font style=&quot;font-size: 22px;&quot;&gt;group2&lt;/font&gt;" style="text;html=1;strokeColor=none;fillColor=none;align=center;verticalAlign=middle;whiteSpace=wrap;rounded=0;" vertex="1" parent="1">
          <mxGeometry x="910" y="247.5" width="100" height="60" as="geometry" />
        </mxCell>
        <mxCell id="Y89Ig2oS1trRoRL-e6D0-25" value="topic A (tag b)" style="text;html=1;strokeColor=none;fillColor=none;align=center;verticalAlign=middle;whiteSpace=wrap;rounded=0;" vertex="1" parent="1">
          <mxGeometry x="910" y="342.5" width="120" height="30" as="geometry" />
        </mxCell>
        <mxCell id="Y89Ig2oS1trRoRL-e6D0-26" value="&lt;font style=&quot;font-size: 22px;&quot;&gt;group3&lt;/font&gt;" style="text;html=1;strokeColor=none;fillColor=none;align=center;verticalAlign=middle;whiteSpace=wrap;rounded=0;" vertex="1" parent="1">
          <mxGeometry x="910" y="627.5" width="100" height="60" as="geometry" />
        </mxCell>
        <mxCell id="Y89Ig2oS1trRoRL-e6D0-27" value="topic A (tag b)" style="text;html=1;strokeColor=none;fillColor=none;align=center;verticalAlign=middle;whiteSpace=wrap;rounded=0;" vertex="1" parent="1">
          <mxGeometry x="910" y="722.5" width="120" height="30" as="geometry" />
        </mxCell>
        <mxCell id="Y89Ig2oS1trRoRL-e6D0-29" value="m1" style="rounded=0;whiteSpace=wrap;html=1;" vertex="1" parent="1">
          <mxGeometry x="500" y="277.5" width="120" height="60" as="geometry" />
        </mxCell>
        <mxCell id="Y89Ig2oS1trRoRL-e6D0-30" value="m2" style="rounded=0;whiteSpace=wrap;html=1;" vertex="1" parent="1">
          <mxGeometry x="500" y="350" width="120" height="60" as="geometry" />
        </mxCell>
        <mxCell id="Y89Ig2oS1trRoRL-e6D0-31" value="m3" style="rounded=0;whiteSpace=wrap;html=1;" vertex="1" parent="1">
          <mxGeometry x="500" y="430" width="120" height="60" as="geometry" />
        </mxCell>
        <mxCell id="Y89Ig2oS1trRoRL-e6D0-32" value="m1" style="rounded=0;whiteSpace=wrap;html=1;" vertex="1" parent="1">
          <mxGeometry x="500" y="566.25" width="120" height="60" as="geometry" />
        </mxCell>
        <mxCell id="Y89Ig2oS1trRoRL-e6D0-33" value="m2" style="rounded=0;whiteSpace=wrap;html=1;" vertex="1" parent="1">
          <mxGeometry x="500" y="638.75" width="120" height="60" as="geometry" />
        </mxCell>
        <mxCell id="Y89Ig2oS1trRoRL-e6D0-34" value="m3" style="rounded=0;whiteSpace=wrap;html=1;" vertex="1" parent="1">
          <mxGeometry x="500" y="718.75" width="120" height="60" as="geometry" />
        </mxCell>
        <mxCell id="Y89Ig2oS1trRoRL-e6D0-35" value="" style="endArrow=classic;html=1;rounded=0;" edge="1" parent="1">
          <mxGeometry width="50" height="50" relative="1" as="geometry">
            <mxPoint x="420" y="380" as="sourcePoint" />
            <mxPoint x="490" y="330" as="targetPoint" />
          </mxGeometry>
        </mxCell>
        <mxCell id="Y89Ig2oS1trRoRL-e6D0-36" value="" style="endArrow=classic;html=1;rounded=0;" edge="1" parent="1">
          <mxGeometry width="50" height="50" relative="1" as="geometry">
            <mxPoint x="430" y="400" as="sourcePoint" />
            <mxPoint x="500" y="390" as="targetPoint" />
          </mxGeometry>
        </mxCell>
        <mxCell id="Y89Ig2oS1trRoRL-e6D0-37" value="" style="endArrow=classic;html=1;rounded=0;" edge="1" parent="1">
          <mxGeometry width="50" height="50" relative="1" as="geometry">
            <mxPoint x="430" y="430" as="sourcePoint" />
            <mxPoint x="490" y="450" as="targetPoint" />
          </mxGeometry>
        </mxCell>
        <mxCell id="Y89Ig2oS1trRoRL-e6D0-38" value="" style="endArrow=classic;html=1;rounded=0;" edge="1" parent="1">
          <mxGeometry width="50" height="50" relative="1" as="geometry">
            <mxPoint x="630" y="310" as="sourcePoint" />
            <mxPoint x="750" y="270" as="targetPoint" />
          </mxGeometry>
        </mxCell>
        <mxCell id="Y89Ig2oS1trRoRL-e6D0-39" value="" style="endArrow=classic;html=1;rounded=0;" edge="1" parent="1">
          <mxGeometry width="50" height="50" relative="1" as="geometry">
            <mxPoint x="630" y="380" as="sourcePoint" />
            <mxPoint x="750" y="350" as="targetPoint" />
          </mxGeometry>
        </mxCell>
        <mxCell id="Y89Ig2oS1trRoRL-e6D0-40" value="" style="endArrow=classic;html=1;rounded=0;exitX=1;exitY=0.5;exitDx=0;exitDy=0;" edge="1" parent="1" source="Y89Ig2oS1trRoRL-e6D0-31">
          <mxGeometry width="50" height="50" relative="1" as="geometry">
            <mxPoint x="700" y="450" as="sourcePoint" />
            <mxPoint x="750" y="400" as="targetPoint" />
          </mxGeometry>
        </mxCell>
        <mxCell id="Y89Ig2oS1trRoRL-e6D0-41" value="" style="endArrow=classic;html=1;rounded=0;exitX=0.987;exitY=0.669;exitDx=0;exitDy=0;exitPerimeter=0;" edge="1" parent="1" source="Y89Ig2oS1trRoRL-e6D0-4">
          <mxGeometry width="50" height="50" relative="1" as="geometry">
            <mxPoint x="450" y="650" as="sourcePoint" />
            <mxPoint x="500" y="600" as="targetPoint" />
          </mxGeometry>
        </mxCell>
        <mxCell id="Y89Ig2oS1trRoRL-e6D0-42" value="" style="endArrow=classic;html=1;rounded=0;exitX=1.007;exitY=0.861;exitDx=0;exitDy=0;exitPerimeter=0;" edge="1" parent="1" source="Y89Ig2oS1trRoRL-e6D0-4">
          <mxGeometry width="50" height="50" relative="1" as="geometry">
            <mxPoint x="450" y="730" as="sourcePoint" />
            <mxPoint x="500" y="680" as="targetPoint" />
          </mxGeometry>
        </mxCell>
        <mxCell id="Y89Ig2oS1trRoRL-e6D0-43" value="" style="endArrow=classic;html=1;rounded=0;exitX=1.033;exitY=0.974;exitDx=0;exitDy=0;exitPerimeter=0;" edge="1" parent="1" source="Y89Ig2oS1trRoRL-e6D0-4">
          <mxGeometry width="50" height="50" relative="1" as="geometry">
            <mxPoint x="450" y="810" as="sourcePoint" />
            <mxPoint x="500" y="760" as="targetPoint" />
          </mxGeometry>
        </mxCell>
        <mxCell id="Y89Ig2oS1trRoRL-e6D0-44" value="" style="endArrow=classic;html=1;rounded=0;exitX=1.017;exitY=0.629;exitDx=0;exitDy=0;exitPerimeter=0;" edge="1" parent="1" source="Y89Ig2oS1trRoRL-e6D0-32">
          <mxGeometry width="50" height="50" relative="1" as="geometry">
            <mxPoint x="710" y="680" as="sourcePoint" />
            <mxPoint x="760" y="630" as="targetPoint" />
          </mxGeometry>
        </mxCell>
        <mxCell id="Y89Ig2oS1trRoRL-e6D0-45" value="" style="endArrow=classic;html=1;rounded=0;" edge="1" parent="1" source="Y89Ig2oS1trRoRL-e6D0-33">
          <mxGeometry width="50" height="50" relative="1" as="geometry">
            <mxPoint x="640" y="690" as="sourcePoint" />
            <mxPoint x="760" y="680" as="targetPoint" />
          </mxGeometry>
        </mxCell>
        <mxCell id="Y89Ig2oS1trRoRL-e6D0-46" value="" style="endArrow=classic;html=1;rounded=0;exitX=1.017;exitY=0.638;exitDx=0;exitDy=0;exitPerimeter=0;" edge="1" parent="1" source="Y89Ig2oS1trRoRL-e6D0-34">
          <mxGeometry width="50" height="50" relative="1" as="geometry">
            <mxPoint x="710" y="780" as="sourcePoint" />
            <mxPoint x="760" y="730" as="targetPoint" />
          </mxGeometry>
        </mxCell>
        <mxCell id="Y89Ig2oS1trRoRL-e6D0-47" value="" style="endArrow=classic;html=1;rounded=0;exitX=1.042;exitY=0.488;exitDx=0;exitDy=0;exitPerimeter=0;" edge="1" parent="1" source="Y89Ig2oS1trRoRL-e6D0-5">
          <mxGeometry width="50" height="50" relative="1" as="geometry">
            <mxPoint x="220" y="510" as="sourcePoint" />
            <mxPoint x="270" y="460" as="targetPoint" />
          </mxGeometry>
        </mxCell>
        <mxCell id="Y89Ig2oS1trRoRL-e6D0-49" value="MessageQueue" style="text;html=1;strokeColor=none;fillColor=none;align=center;verticalAlign=middle;whiteSpace=wrap;rounded=0;" vertex="1" parent="1">
          <mxGeometry x="265" y="247.5" width="160" height="30" as="geometry" />
        </mxCell>
        <mxCell id="Y89Ig2oS1trRoRL-e6D0-50" value="&lt;font style=&quot;font-size: 21px;&quot;&gt;group 1&lt;/font&gt;" style="text;html=1;strokeColor=none;fillColor=none;align=center;verticalAlign=middle;whiteSpace=wrap;rounded=0;" vertex="1" parent="1">
          <mxGeometry x="-55" y="342.5" width="90" height="30" as="geometry" />
        </mxCell>
        <mxCell id="Y89Ig2oS1trRoRL-e6D0-51" value="实例1&lt;br style=&quot;border-color: var(--border-color);&quot;&gt;192.168.1.1" style="rounded=1;whiteSpace=wrap;html=1;" vertex="1" parent="1">
          <mxGeometry x="-70" y="391.25" width="120" height="60" as="geometry" />
        </mxCell>
        <mxCell id="Y89Ig2oS1trRoRL-e6D0-52" value="实例2&lt;br style=&quot;border-color: var(--border-color);&quot;&gt;192.168.1.2" style="rounded=1;whiteSpace=wrap;html=1;" vertex="1" parent="1">
          <mxGeometry x="-70" y="511.25" width="120" height="60" as="geometry" />
        </mxCell>
        <mxCell id="Y89Ig2oS1trRoRL-e6D0-53" value="pub&amp;nbsp; topic A(tab)" style="text;html=1;strokeColor=none;fillColor=none;align=center;verticalAlign=middle;whiteSpace=wrap;rounded=0;" vertex="1" parent="1">
          <mxGeometry x="100" y="423" width="100" height="30" as="geometry" />
        </mxCell>
      </root>
    </mxGraphModel>
  </diagram>
</mxfile>
